<svg width="103" height="43" viewBox="0 0 103 43" fill="none" xmlns="http://www.w3.org/2000/svg">
<path opacity="0.3" d="M48.212 34.216C47.468 34.216 46.85 34.09 46.358 33.838C45.866 33.586 45.5 33.25 45.26 32.83C45.02 32.41 44.9 31.954 44.9 31.462C44.9 30.55 45.248 29.848 45.944 29.356C46.64 28.864 47.588 28.618 48.788 28.618H51.2V28.51C51.2 27.73 50.996 27.142 50.588 26.746C50.18 26.338 49.634 26.134 48.95 26.134C48.362 26.134 47.852 26.284 47.42 26.584C47 26.872 46.736 27.298 46.628 27.862H45.08C45.14 27.214 45.356 26.668 45.728 26.224C46.112 25.78 46.586 25.444 47.15 25.216C47.714 24.976 48.314 24.856 48.95 24.856C50.198 24.856 51.134 25.192 51.758 25.864C52.394 26.524 52.712 27.406 52.712 28.51V34H51.362L51.272 32.398C51.02 32.902 50.648 33.334 50.156 33.694C49.676 34.042 49.028 34.216 48.212 34.216ZM48.446 32.938C49.022 32.938 49.514 32.788 49.922 32.488C50.342 32.188 50.66 31.798 50.876 31.318C51.092 30.838 51.2 30.334 51.2 29.806V29.788H48.914C48.026 29.788 47.396 29.944 47.024 30.256C46.664 30.556 46.484 30.934 46.484 31.39C46.484 31.858 46.652 32.236 46.988 32.524C47.336 32.8 47.822 32.938 48.446 32.938ZM58.1483 31.192C57.6443 31.192 57.1823 31.126 56.7623 30.994L55.8623 31.84C55.9943 31.936 56.1563 32.02 56.3483 32.092C56.5523 32.152 56.8403 32.212 57.2123 32.272C57.5843 32.32 58.1063 32.374 58.7783 32.434C59.9783 32.518 60.8363 32.794 61.3523 33.262C61.8683 33.73 62.1263 34.342 62.1263 35.098C62.1263 35.614 61.9823 36.106 61.6943 36.574C61.4183 37.042 60.9863 37.426 60.3983 37.726C59.8223 38.026 59.0783 38.176 58.1663 38.176C57.3623 38.176 56.6483 38.068 56.0243 37.852C55.4003 37.648 54.9143 37.33 54.5663 36.898C54.2183 36.478 54.0443 35.944 54.0443 35.296C54.0443 34.96 54.1343 34.594 54.3143 34.198C54.4943 33.814 54.8303 33.448 55.3223 33.1C55.0583 32.992 54.8303 32.878 54.6383 32.758C54.4583 32.626 54.2903 32.482 54.1343 32.326V31.912L55.6643 30.4C54.9563 29.8 54.6023 29.008 54.6023 28.024C54.6023 27.436 54.7403 26.902 55.0163 26.422C55.2923 25.942 55.6943 25.564 56.2223 25.288C56.7503 25 57.3923 24.856 58.1483 24.856C58.6643 24.856 59.1323 24.928 59.5523 25.072H62.8463V26.206L61.1723 26.278C61.5203 26.782 61.6943 27.364 61.6943 28.024C61.6943 28.612 61.5503 29.146 61.2623 29.626C60.9863 30.106 60.5843 30.49 60.0563 30.778C59.5403 31.054 58.9043 31.192 58.1483 31.192ZM58.1483 29.95C58.7843 29.95 59.2883 29.788 59.6603 29.464C60.0443 29.128 60.2363 28.648 60.2363 28.024C60.2363 27.412 60.0443 26.944 59.6603 26.62C59.2883 26.284 58.7843 26.116 58.1483 26.116C57.5003 26.116 56.9843 26.284 56.6003 26.62C56.2283 26.944 56.0423 27.412 56.0423 28.024C56.0423 28.648 56.2283 29.128 56.6003 29.464C56.9843 29.788 57.5003 29.95 58.1483 29.95ZM55.5203 35.152C55.5203 35.752 55.7723 36.196 56.2763 36.484C56.7803 36.784 57.4103 36.934 58.1663 36.934C58.9103 36.934 59.5043 36.772 59.9483 36.448C60.4043 36.124 60.6323 35.692 60.6323 35.152C60.6323 34.768 60.4763 34.432 60.1643 34.144C59.8523 33.868 59.2763 33.706 58.4363 33.658C57.7763 33.61 57.2063 33.55 56.7263 33.478C56.2343 33.742 55.9103 34.024 55.7543 34.324C55.5983 34.636 55.5203 34.912 55.5203 35.152ZM67.8544 34.216C67.0024 34.216 66.2464 34.024 65.5864 33.64C64.9264 33.244 64.4044 32.698 64.0204 32.002C63.6484 31.306 63.4624 30.484 63.4624 29.536C63.4624 28.6 63.6484 27.784 64.0204 27.088C64.3924 26.38 64.9084 25.834 65.5684 25.45C66.2404 25.054 67.0144 24.856 67.8904 24.856C68.7544 24.856 69.4984 25.054 70.1224 25.45C70.7584 25.834 71.2444 26.344 71.5804 26.98C71.9164 27.616 72.0844 28.3 72.0844 29.032C72.0844 29.164 72.0784 29.296 72.0664 29.428C72.0664 29.56 72.0664 29.71 72.0664 29.878H64.9564C64.9924 30.562 65.1484 31.132 65.4244 31.588C65.7124 32.032 66.0664 32.368 66.4864 32.596C66.9184 32.824 67.3744 32.938 67.8544 32.938C68.4784 32.938 69.0004 32.794 69.4204 32.506C69.8404 32.218 70.1464 31.828 70.3384 31.336H71.8324C71.5924 32.164 71.1304 32.854 70.4464 33.406C69.7744 33.946 68.9104 34.216 67.8544 34.216ZM67.8544 26.134C67.1344 26.134 66.4924 26.356 65.9284 26.8C65.3764 27.232 65.0584 27.868 64.9744 28.708H70.5904C70.5544 27.904 70.2784 27.274 69.7624 26.818C69.2464 26.362 68.6104 26.134 67.8544 26.134ZM73.7284 34V25.072H75.0964L75.1864 26.674C75.4744 26.11 75.8884 25.666 76.4284 25.342C76.9684 25.018 77.5804 24.856 78.2644 24.856C79.3204 24.856 80.1604 25.18 80.7844 25.828C81.4204 26.464 81.7384 27.448 81.7384 28.78V34H80.2264V28.942C80.2264 27.082 79.4584 26.152 77.9224 26.152C77.1544 26.152 76.5124 26.434 75.9964 26.998C75.4924 27.55 75.2404 28.342 75.2404 29.374V34H73.7284ZM87.7732 34.216C86.9212 34.216 86.1532 34.024 85.4692 33.64C84.7972 33.244 84.2632 32.698 83.8672 32.002C83.4832 31.294 83.2912 30.472 83.2912 29.536C83.2912 28.6 83.4832 27.784 83.8672 27.088C84.2632 26.38 84.7972 25.834 85.4692 25.45C86.1532 25.054 86.9212 24.856 87.7732 24.856C88.8292 24.856 89.7172 25.132 90.4372 25.684C91.1692 26.236 91.6312 26.974 91.8232 27.898H90.2752C90.1552 27.346 89.8612 26.92 89.3932 26.62C88.9252 26.308 88.3792 26.152 87.7552 26.152C87.2512 26.152 86.7772 26.278 86.3332 26.53C85.8892 26.782 85.5292 27.16 85.2532 27.664C84.9772 28.168 84.8392 28.792 84.8392 29.536C84.8392 30.28 84.9772 30.904 85.2532 31.408C85.5292 31.912 85.8892 32.296 86.3332 32.56C86.7772 32.812 87.2512 32.938 87.7552 32.938C88.3792 32.938 88.9252 32.788 89.3932 32.488C89.8612 32.176 90.1552 31.738 90.2752 31.174H91.8232C91.6432 32.074 91.1872 32.806 90.4552 33.37C89.7232 33.934 88.8292 34.216 87.7732 34.216ZM94.5468 37.96L96.7608 33.136H96.2388L92.6928 25.072H94.3308L97.2828 32.02L100.415 25.072H101.981L96.1308 37.96H94.5468Z" fill="#111111"/>
<path d="M2.73 42.24V12.168H7.518L8.106 15.15C8.778 14.226 9.66 13.414 10.752 12.714C11.872 12.014 13.314 11.664 15.078 11.664C17.038 11.664 18.788 12.14 20.328 13.092C21.868 14.044 23.086 15.346 23.982 16.998C24.878 18.65 25.326 20.526 25.326 22.626C25.326 24.726 24.878 26.602 23.982 28.254C23.086 29.878 21.868 31.166 20.328 32.118C18.788 33.042 17.038 33.504 15.078 33.504C13.51 33.504 12.138 33.21 10.962 32.622C9.786 32.034 8.834 31.208 8.106 30.144V42.24H2.73ZM13.944 28.8C15.652 28.8 17.066 28.226 18.186 27.078C19.306 25.93 19.866 24.446 19.866 22.626C19.866 20.806 19.306 19.308 18.186 18.132C17.066 16.956 15.652 16.368 13.944 16.368C12.208 16.368 10.78 16.956 9.66 18.132C8.568 19.28 8.022 20.764 8.022 22.584C8.022 24.404 8.568 25.902 9.66 27.078C10.78 28.226 12.208 28.8 13.944 28.8ZM28.4484 33V12.168H33.2364L33.7404 16.074C34.4964 14.73 35.5184 13.666 36.8064 12.882C38.1224 12.07 39.6624 11.664 41.4264 11.664V17.334H39.9144C38.7384 17.334 37.6884 17.516 36.7644 17.88C35.8404 18.244 35.1124 18.874 34.5804 19.77C34.0764 20.666 33.8244 21.912 33.8244 23.508V33H28.4484ZM49.4688 17.88L50.2668 11.958L45.5628 15.654L43.5468 12.084L49.0488 9.9L43.5888 7.8L45.4788 4.398L50.3088 8.052L49.4688 2.046H53.3748L52.5348 8.052L57.3228 4.398L59.1708 7.758L53.7108 9.942L59.2128 12.126L57.2388 15.612L52.5348 11.958L53.3328 17.88H49.4688Z" fill="#111111"/>
</svg>
